<svg width="42" height="42" viewBox="0 0 42 42" fill="none" xmlns="http://www.w3.org/2000/svg">
<g clip-path="url(#clip0_1_4356)">
<path d="M30.8332 8.73743C28.2814 8.7373 26.6625 11.5821 26.2793 11.5821C25.9443 11.582 24.3916 8.73743 21.7252 8.7373C19.1321 8.73743 17.0144 10.8761 16.8756 13.466C16.7976 14.9289 17.2693 16.0422 17.9338 17.0507C19.2616 19.0654 25.0669 23.9157 26.2877 23.9157C27.5351 23.9157 33.2878 19.083 34.6241 17.0507C35.2903 16.0377 35.7604 14.9289 35.6824 13.4659C35.5439 10.8761 33.4266 8.7373 30.8332 8.73743Z" fill="url(#paint0_linear_1_4356)"/>
<path d="M12.5966 25.1888C12.5966 25.1888 9.0281 28.7575 8.03549 29.7498C7.95981 29.8255 7.61338 29.7392 7.50844 29.7206C6.56512 29.5526 5.77291 29.7894 5.04403 30.5184L0.88883 34.6738C-0.296233 35.8588 -0.296233 37.78 0.88857 38.9649L3.03425 41.1107C4.21931 42.2955 6.14054 42.2955 7.32534 41.1107L11.4808 36.9553C12.2021 36.2338 12.3205 35.2764 12.1635 34.3415C12.1443 34.2271 12.167 34.0473 12.2496 33.9649C13.5124 32.7019 16.7936 29.4208 16.7936 29.4208C17.0527 29.1618 17.3762 29.0249 17.7295 29.0251C18.0869 29.0249 18.3518 29.1663 18.4262 29.2107C20.8609 30.6714 23.6294 31.4435 26.432 31.4435C30.5396 31.4435 34.4346 29.8102 37.4003 26.8447C43.5331 20.7119 43.5331 10.733 37.4003 4.60003C34.4341 1.63406 30.4841 0.000480318 26.2778 0.000610359C22.0713 0.000610359 18.1211 1.63406 15.1555 4.60003C10.0156 9.7399 9.06464 17.365 12.7902 23.5754C13.0458 24.0033 13.0941 24.6911 12.5966 25.1888ZM17.2601 24.7397C12.2877 19.7675 12.2877 11.6767 17.2602 6.70422C19.6652 4.29912 22.8681 2.97465 26.278 2.97465C29.688 2.97465 32.8908 4.29925 35.2956 6.70422C37.7007 9.10933 39.0253 12.312 39.0253 15.7219C39.0253 19.1321 37.7007 22.3346 35.2953 24.7397C32.8904 27.1447 29.6878 28.4693 26.2778 28.4693C22.8677 28.4693 19.6652 27.1447 17.2601 24.7397Z" fill="url(#paint1_linear_1_4356)"/>
</g>
<defs>
<linearGradient id="paint0_linear_1_4356" x1="26.279" y1="8.7373" x2="26.279" y2="23.9157" gradientUnits="userSpaceOnUse">
<stop stop-color="#A5DAFF"/>
<stop offset="1" stop-color="#5BA8DE"/>
</linearGradient>
<linearGradient id="paint1_linear_1_4356" x1="20.9999" y1="0.000610352" x2="20.9999" y2="41.9993" gradientUnits="userSpaceOnUse">
<stop stop-color="#A5DAFF"/>
<stop offset="1" stop-color="#5BA8DE"/>
</linearGradient>
<clipPath id="clip0_1_4356">
<rect width="42" height="42" fill="white"/>
</clipPath>
</defs>
</svg>
