<svg width="280" height="90" viewBox="0 0 280 90" fill="none" xmlns="http://www.w3.org/2000/svg">
<g filter="url(#filter0_dd_5172_69119)">
<rect x="15" y="15" width="250" height="60" rx="30" fill="#E7EBF0" fill-opacity="0.3"/>
<rect x="15" y="15" width="250" height="60" rx="30" fill="url(#paint0_linear_5172_69119)" fill-opacity="0.1"/>
<rect x="16" y="16" width="248" height="58" rx="29" stroke="url(#paint1_linear_5172_69119)" stroke-opacity="0.7" stroke-width="2"/>
<path d="M93.8184 52V37.7812H99.0039C100.599 37.7812 101.823 38.1816 102.676 38.9824C103.529 39.7832 103.955 40.89 103.955 42.3027C103.955 43.709 103.529 44.819 102.676 45.6328C101.829 46.4466 100.602 46.8535 98.9941 46.8535H96.4453V52H93.8184ZM96.4453 44.8613H98.7695C99.7266 44.8613 100.391 44.627 100.762 44.1582C101.139 43.6829 101.328 43.0677 101.328 42.3125C101.328 41.5573 101.139 40.9486 100.762 40.4863C100.391 40.0241 99.7266 39.793 98.7695 39.793H96.4453V44.8613ZM105.693 52V41.8926H108.115L108.174 43.084H108.223C108.451 42.6868 108.757 42.3451 109.141 42.0586C109.531 41.7656 109.977 41.6191 110.479 41.6191C110.622 41.6191 110.765 41.6354 110.908 41.668C111.058 41.7005 111.165 41.7298 111.23 41.7559V43.9434C111.107 43.9173 110.977 43.8978 110.84 43.8848C110.703 43.8652 110.553 43.8555 110.391 43.8555C109.902 43.8555 109.469 43.9954 109.092 44.2754C108.714 44.5553 108.434 44.9069 108.252 45.3301V52H105.693ZM112.832 52V41.8926H115.391V52H112.832ZM112.607 38.9141C112.607 38.5169 112.738 38.1849 112.998 37.918C113.258 37.651 113.633 37.5176 114.121 37.5176C114.603 37.5176 114.974 37.651 115.234 37.918C115.495 38.1849 115.625 38.5169 115.625 38.9141C115.625 39.3047 115.495 39.6367 115.234 39.9102C114.974 40.1771 114.6 40.3105 114.111 40.3105C113.623 40.3105 113.249 40.1771 112.988 39.9102C112.734 39.6367 112.607 39.3047 112.607 38.9141ZM117.422 47.0977V46.7852C117.422 45.2943 117.819 44.0736 118.613 43.123C119.408 42.1725 120.449 41.6973 121.738 41.6973C122.409 41.6973 122.985 41.8145 123.467 42.0488C123.949 42.2832 124.326 42.5957 124.6 42.9863V37.1367H127.129V52H124.736L124.678 50.75H124.629C124.395 51.1602 124.023 51.5052 123.516 51.7852C123.008 52.0586 122.419 52.1953 121.748 52.1953C120.413 52.1953 119.359 51.7201 118.584 50.7695C117.809 49.8125 117.422 48.5885 117.422 47.0977ZM120.02 47.1758C120.02 48.0742 120.212 48.8132 120.596 49.3926C120.986 49.972 121.579 50.2617 122.373 50.2617C122.913 50.2617 123.372 50.1152 123.75 49.8223C124.134 49.5228 124.411 49.1745 124.58 48.7773V45.1055C124.411 44.7018 124.141 44.3568 123.77 44.0703C123.398 43.7773 122.936 43.6309 122.383 43.6309C121.589 43.6309 120.996 43.9206 120.605 44.5C120.215 45.0794 120.02 45.8151 120.02 46.707V47.1758ZM129.678 52V41.8926H132.1L132.158 43.084H132.207C132.435 42.6868 132.741 42.3451 133.125 42.0586C133.516 41.7656 133.962 41.6191 134.463 41.6191C134.606 41.6191 134.749 41.6354 134.893 41.668C135.042 41.7005 135.15 41.7298 135.215 41.7559V43.9434C135.091 43.9173 134.961 43.8978 134.824 43.8848C134.688 43.8652 134.538 43.8555 134.375 43.8555C133.887 43.8555 133.454 43.9954 133.076 44.2754C132.699 44.5553 132.419 44.9069 132.236 45.3301V52H129.678ZM136.68 48.2305V41.8926H139.219V48.25C139.219 48.9792 139.372 49.4902 139.678 49.7832C139.99 50.0762 140.417 50.2227 140.957 50.2227C141.439 50.2227 141.865 50.0859 142.236 49.8125C142.607 49.5391 142.891 49.194 143.086 48.7773V41.8926H145.635V52H143.232L143.164 50.7793H143.115C142.803 51.2155 142.383 51.5638 141.855 51.8242C141.328 52.0781 140.739 52.2051 140.088 52.2051C139.072 52.2051 138.249 51.8991 137.617 51.2871C136.992 50.6751 136.68 49.6562 136.68 48.2305ZM147.471 52V50.3301L152.549 43.8457H147.559V41.8926H155.801V43.5234L150.693 50.0566H156.094V52H147.471ZM151.074 40.3301L148.428 36.9414H150.352L151.777 38.4941L153.193 36.9414H155.088L152.48 40.3301H151.074ZM157.91 52V41.8926H160.469V52H157.91ZM157.686 38.9141C157.686 38.5169 157.816 38.1849 158.076 37.918C158.337 37.651 158.711 37.5176 159.199 37.5176C159.681 37.5176 160.052 37.651 160.312 37.918C160.573 38.1849 160.703 38.5169 160.703 38.9141C160.703 39.3047 160.573 39.6367 160.312 39.9102C160.052 40.1771 159.678 40.3105 159.189 40.3105C158.701 40.3105 158.327 40.1771 158.066 39.9102C157.812 39.6367 157.686 39.3047 157.686 38.9141ZM167.266 48.8652L169.746 48.875V49.0117C169.746 49.526 169.922 49.9036 170.273 50.1445C170.632 50.3854 171.11 50.5059 171.709 50.5059C172.314 50.5059 172.777 50.3919 173.096 50.1641C173.421 49.9362 173.584 49.6302 173.584 49.2461C173.584 48.862 173.428 48.5755 173.115 48.3867C172.803 48.1914 172.106 47.9766 171.025 47.7422C169.86 47.4883 168.988 47.1172 168.408 46.6289C167.835 46.1341 167.549 45.4733 167.549 44.6465C167.549 43.722 167.923 42.9831 168.672 42.4297C169.421 41.8763 170.43 41.5996 171.699 41.5996C172.969 41.5996 173.984 41.8828 174.746 42.4492C175.508 43.0156 175.889 43.7936 175.889 44.7832V44.8906H173.418V44.7441C173.418 44.3145 173.275 43.9824 172.988 43.748C172.708 43.5137 172.275 43.3965 171.689 43.3965C171.11 43.3965 170.687 43.4974 170.42 43.6992C170.16 43.901 170.029 44.1647 170.029 44.4902C170.029 44.8158 170.192 45.0762 170.518 45.2715C170.843 45.4603 171.553 45.6719 172.646 45.9062C173.805 46.1471 174.671 46.5117 175.244 47C175.817 47.4883 176.104 48.1719 176.104 49.0508C176.104 50.0469 175.732 50.8346 174.99 51.4141C174.255 51.9935 173.167 52.2832 171.729 52.2832C170.296 52.2832 169.193 51.9935 168.418 51.4141C167.65 50.8281 167.266 50.0143 167.266 48.9727V48.8652ZM177.539 47.0977V46.7852C177.539 45.2357 177.992 43.9857 178.896 43.0352C179.808 42.0781 180.99 41.5996 182.441 41.5996C183.9 41.5996 185.033 42.0456 185.84 42.9375C186.654 43.8294 187.061 45.0566 187.061 46.6191V47.5273H179.18V45.8867H184.541V45.6816C184.541 45.0697 184.362 44.5521 184.004 44.1289C183.652 43.6992 183.138 43.4844 182.461 43.4844C181.673 43.4844 181.077 43.7773 180.674 44.3633C180.277 44.9492 180.078 45.7142 180.078 46.6582V47.1855C180.078 48.1361 180.293 48.9043 180.723 49.4902C181.152 50.0762 181.794 50.3691 182.646 50.3691C183.219 50.3691 183.711 50.2357 184.121 49.9688C184.538 49.7018 184.873 49.3893 185.127 49.0312L186.924 50.1641C186.605 50.75 186.077 51.2513 185.342 51.668C184.613 52.0781 183.727 52.2832 182.686 52.2832C181.058 52.2832 179.792 51.8079 178.887 50.8574C177.988 49.9069 177.539 48.6536 177.539 47.0977Z" fill="#414B5A"/>
</g>
<defs>
<filter id="filter0_dd_5172_69119" x="0" y="0" width="280" height="90" filterUnits="userSpaceOnUse" color-interpolation-filters="sRGB">
<feFlood flood-opacity="0" result="BackgroundImageFix"/>
<feColorMatrix in="SourceAlpha" type="matrix" values="0 0 0 0 0 0 0 0 0 0 0 0 0 0 0 0 0 0 127 0" result="hardAlpha"/>
<feOffset dx="5" dy="5"/>
<feGaussianBlur stdDeviation="5"/>
<feColorMatrix type="matrix" values="0 0 0 0 0.6512 0 0 0 0 0.66896 0 0 0 0 0.74 0 0 0 1 0"/>
<feBlend mode="normal" in2="BackgroundImageFix" result="effect1_dropShadow_5172_69119"/>
<feColorMatrix in="SourceAlpha" type="matrix" values="0 0 0 0 0 0 0 0 0 0 0 0 0 0 0 0 0 0 127 0" result="hardAlpha"/>
<feOffset dx="-5" dy="-5"/>
<feGaussianBlur stdDeviation="5"/>
<feColorMatrix type="matrix" values="0 0 0 0 0.979167 0 0 0 0 0.983333 0 0 0 0 1 0 0 0 1 0"/>
<feBlend mode="normal" in2="effect1_dropShadow_5172_69119" result="effect2_dropShadow_5172_69119"/>
<feBlend mode="normal" in="SourceGraphic" in2="effect2_dropShadow_5172_69119" result="shape"/>
</filter>
<linearGradient id="paint0_linear_5172_69119" x1="146.541" y1="51.5" x2="146.541" y2="75" gradientUnits="userSpaceOnUse">
<stop stop-opacity="0"/>
<stop offset="1" stop-color="#1860A3"/>
</linearGradient>
<linearGradient id="paint1_linear_5172_69119" x1="140" y1="15" x2="140" y2="75" gradientUnits="userSpaceOnUse">
<stop stop-color="#0A85C2"/>
<stop offset="1" stop-color="#123597"/>
</linearGradient>
</defs>
</svg>
