<svg width="153" height="39" viewBox="0 0 153 39" fill="none" xmlns="http://www.w3.org/2000/svg">
<mask id="path-1-outside-1_5172_69031" maskUnits="userSpaceOnUse" x="0" y="0" width="153" height="39" fill="black">
<rect fill="white" width="153" height="39"/>
<path d="M2 4C2 2.89543 2.89543 2 4 2H149C150.105 2 151 2.89543 151 4V35C151 36.1046 150.105 37 149 37H4C2.89543 37 2 36.1046 2 35V4Z"/>
</mask>
<path d="M4 2V4H149V2V0H4V2ZM151 4H149V35H151H153V4H151ZM149 37V35H4V37V39H149V37ZM2 35H4V4H2H0V35H2ZM4 37V35H4H2H0C0 37.2091 1.79087 39 4 39V37ZM151 35H149V37V39C151.209 39 153 37.2091 153 35H151ZM149 2V4H151H153C153 1.79086 151.209 0 149 0V2ZM4 2V0C1.79086 0 0 1.79086 0 4H2H4V4V2Z" fill="#0A85C2" mask="url(#path-1-outside-1_5172_69031)"/>
<path d="M23.459 26V13.2031H27.6162C29.0049 13.2031 30.0684 13.5576 30.8066 14.2666C31.5449 14.9697 31.9141 15.9043 31.9141 17.0703C31.9141 18.2305 31.5449 19.1709 30.8066 19.8916C30.0684 20.6064 29.0049 20.9639 27.6162 20.9639H25.085V26H23.459ZM25.085 19.6191H27.6162C28.6064 19.6191 29.3008 19.373 29.6992 18.8809C30.0977 18.3828 30.2969 17.7793 30.2969 17.0703C30.2969 16.3555 30.0977 15.7578 29.6992 15.2773C29.3008 14.791 28.6064 14.5479 27.6162 14.5479H25.085V19.6191ZM33.8125 26V13.2031H37.8994C39.2529 13.2031 40.293 13.5459 41.0195 14.2314C41.752 14.9111 42.1182 15.8193 42.1182 16.9561C42.1182 18.0869 41.752 19.0039 41.0195 19.707C40.293 20.4043 39.2529 20.7529 37.8994 20.7529H35.4385V26H33.8125ZM35.4385 19.4258H37.8994C38.8662 19.4258 39.54 19.1885 39.9209 18.7139C40.3018 18.2334 40.4922 17.6475 40.4922 16.9561C40.4922 16.2588 40.3018 15.6816 39.9209 15.2246C39.54 14.7617 38.8662 14.5303 37.8994 14.5303H35.4385V19.4258ZM40.9668 26L37.8467 20.0938L39.4639 19.8564L42.7773 26H40.9668ZM44.623 26V13.2031H46.249V26H44.623ZM49.2109 26V13.2031H50.8369V24.6553H56.8311V26H49.2109ZM57.7363 19.9971V19.2061C57.7363 17.2139 58.2314 15.6729 59.2217 14.583C60.2178 13.4932 61.4951 12.9482 63.0537 12.9482C64.6123 12.9482 65.8867 13.4932 66.877 14.583C67.873 15.6729 68.3711 17.2139 68.3711 19.2061V19.9971C68.3711 21.9893 67.873 23.5303 66.877 24.6201C65.8867 25.71 64.6123 26.2549 63.0537 26.2549C61.4951 26.2549 60.2178 25.71 59.2217 24.6201C58.2314 23.5303 57.7363 21.9893 57.7363 19.9971ZM59.3799 19.9971C59.3799 21.5381 59.7139 22.7363 60.3818 23.5918C61.0557 24.4414 61.9463 24.8662 63.0537 24.8662C64.1611 24.8662 65.0518 24.4414 65.7256 23.5918C66.3994 22.7363 66.7363 21.5381 66.7363 19.9971V19.2061C66.7363 17.665 66.3994 16.4697 65.7256 15.6201C65.0518 14.7646 64.1611 14.3369 63.0537 14.3369C61.9463 14.3369 61.0557 14.7646 60.3818 15.6201C59.7139 16.4697 59.3799 17.665 59.3799 19.2061V19.9971ZM69.707 26V24.8311L76.668 14.5391H69.8389V13.2031H78.6104V14.3721L71.6582 24.6641H78.8828V26H69.707ZM73.6621 11.9375L71.3594 8.99316H72.792L74.251 10.6016L75.666 8.99316H77.1338L74.9014 11.9375H73.6621ZM80.9043 26V13.2031H82.6094L88.3662 22.2822C88.4775 22.4639 88.583 22.6426 88.6826 22.8184C88.7822 22.9941 88.8672 23.1553 88.9375 23.3018H89.0078C89.002 23.126 88.9961 22.9297 88.9902 22.7129C88.9902 22.4902 88.9902 22.291 88.9902 22.1152V13.2031H90.5723V26H88.876L83.1191 16.9121C83.002 16.7363 82.8936 16.5605 82.7939 16.3848C82.7002 16.2031 82.6123 16.0391 82.5303 15.8926H82.4775C82.4834 16.0684 82.4863 16.2676 82.4863 16.4902C82.4922 16.7129 82.4951 16.9121 82.4951 17.0879V26H80.9043ZM118.444 14.5479V13.2031H128.209V14.5479H124.14V26H122.514V14.5479H118.444Z" fill="#0A85C2"/>
<path d="M106.848 21.3281C106.911 21.2072 106.973 21.0893 107.039 20.9713C107.611 19.9287 108.287 18.9779 109.382 18.3823L109.399 18.3736L109.433 18.3546L109.529 18.3037L109.436 18.2804L109.388 18.2687H109.374H109.358C108.714 18.1081 108.04 18.1188 107.401 18.2996C106.762 18.4805 106.182 18.8253 105.718 19.2997C104.99 20.07 104.329 20.9189 103.669 21.7577C101.465 24.5651 97.4951 24.4384 95.5788 21.4868C94.2028 19.3681 95.1522 16.5723 97.5184 15.8486C98.9265 15.4118 100.244 15.703 101.45 16.5345C101.741 16.7383 102.018 16.9713 102.3 17.2014C102.735 16.4325 103.219 15.6926 103.749 14.9866C103.72 14.9688 103.693 14.9494 103.666 14.9283C101.849 13.4722 99.7871 12.8489 97.4806 13.1809C93.3247 13.7794 90.5901 17.9862 92.767 22.1261C94.111 24.6845 96.3317 26.0431 99.1741 26.362C101.252 26.5965 103.142 26.0985 104.707 24.6365C104.99 24.3695 105.248 24.077 105.478 23.7628C105.591 23.6055 105.701 23.4439 105.804 23.2793L105.881 23.1541L105.966 23.0085C105.987 22.9706 106.009 22.9342 106.03 22.8964C106.104 22.7697 106.175 22.6401 106.245 22.512C106.315 22.3838 106.391 22.2469 106.455 22.1144C106.519 21.9819 106.584 21.8625 106.648 21.7373L106.848 21.3281Z" fill="#0A85C2"/>
<path d="M117.503 18.0969C116.866 16.575 115.79 15.2774 114.413 14.3696C113.035 13.4618 111.419 12.9851 109.769 13.0004C107.876 13.0004 106.183 13.542 104.92 14.9545C104.853 15.0302 104.786 15.1089 104.721 15.189C104.038 16.0364 103.489 16.9989 102.935 17.944C102.912 17.9833 102.889 18.0226 102.867 18.0619C102.296 19.0463 101.753 20.0408 100.873 20.798C100.853 20.8141 100.728 20.9247 100.607 21.0106L100.721 21.0208C101.7 21.0929 102.675 20.8311 103.487 20.2782C104.541 19.5647 105.278 18.5381 106.1 17.5974C106.682 16.9261 107.301 16.2869 108.138 15.917C110.58 14.8176 113.734 16.0437 114.764 18.5221C115.323 19.8676 115.317 21.2116 114.376 22.3954C113.465 23.5429 112.211 23.8327 110.806 23.5938C109.759 23.4147 108.901 22.8658 108.096 22.2076C107.95 22.0926 107.805 21.9819 107.649 21.8552L107.588 21.9746C107.236 22.7063 106.828 23.4094 106.366 24.0773C106.373 24.0904 106.382 24.1031 106.391 24.1151C106.445 24.1863 106.506 24.2525 106.571 24.3132C106.622 24.3627 106.673 24.4122 106.727 24.4588C106.781 24.5054 106.835 24.5447 106.89 24.584C106.998 24.6641 107.109 24.7413 107.221 24.817C107.333 24.8927 107.444 24.9626 107.557 25.0369C107.671 25.1112 107.786 25.1825 107.902 25.2422C108.019 25.3019 108.135 25.3718 108.253 25.433C108.371 25.4941 108.492 25.5509 108.613 25.6048C108.734 25.6587 108.857 25.7125 108.98 25.7606C109.102 25.8086 109.23 25.8552 109.355 25.8975C109.481 25.9397 109.61 25.979 109.74 26.0154C109.87 26.0518 110.001 26.0824 110.132 26.1115C111.771 26.4683 113.395 26.3824 114.899 25.58C117.65 24.1006 118.719 20.9917 117.503 18.0969Z" fill="black"/>
</svg>
