<svg width="200" height="11" viewBox="0 0 200 11" fill="none" xmlns="http://www.w3.org/2000/svg">
<path opacity="0.01" d="M100.001 10.0611C154.492 10.0611 198.665 7.8239 198.665 5.06418C198.665 2.30447 154.492 0.0672607 100.001 0.0672607C45.5112 0.0672607 1.33813 2.30447 1.33813 5.06418C1.33813 7.8239 45.5112 10.0611 100.001 10.0611Z" fill="#CCCCCC"/>
<path opacity="0.0176" d="M100 9.99288C153.752 9.99288 197.327 7.78602 197.327 5.06372C197.327 2.34141 153.752 0.134521 100 0.134521C46.2484 0.134521 2.67383 2.34141 2.67383 5.06372C2.67383 7.78602 46.2484 9.99288 100 9.99288Z" fill="#CCCCCC"/>
<path opacity="0.0265" d="M99.9999 9.92683C153.014 9.92683 195.99 7.75031 195.99 5.06542C195.99 2.38052 153.014 0.203979 99.9999 0.203979C46.9859 0.203979 4.00952 2.38052 4.00952 5.06542C4.00952 7.75031 46.9859 9.92683 99.9999 9.92683Z" fill="#CCCCCC"/>
<path opacity="0.0353" d="M100.001 9.85864C152.277 9.85864 194.655 7.71244 194.655 5.06495C194.655 2.41747 152.277 0.27124 100.001 0.27124C47.7253 0.27124 5.34741 2.41747 5.34741 5.06495C5.34741 7.71244 47.7253 9.85864 100.001 9.85864Z" fill="#CCCCCC"/>
<path opacity="0.0441" d="M100 9.78835C151.538 9.78835 193.317 7.67246 193.317 5.06239C193.317 2.45231 151.538 0.336426 100 0.336426C48.4625 0.336426 6.68311 2.45231 6.68311 5.06239C6.68311 7.67246 48.4625 9.78835 100 9.78835Z" fill="#CCCCCC"/>
<path opacity="0.0529" d="M99.9996 9.7244C150.799 9.7244 191.98 7.63886 191.98 5.06619C191.98 2.49353 150.799 0.407959 99.9996 0.407959C49.2 0.407959 8.0188 2.49353 8.0188 5.06619C8.0188 7.63886 49.2 9.7244 99.9996 9.7244Z" fill="#CCCCCC"/>
<path opacity="0.0618" d="M100.001 9.65413C150.062 9.65413 190.645 7.59891 190.645 5.06365C190.645 2.5284 150.062 0.473145 100.001 0.473145C49.9394 0.473145 9.35669 2.5284 9.35669 5.06365C9.35669 7.59891 49.9394 9.65413 100.001 9.65413Z" fill="#CCCCCC"/>
<path opacity="0.0706" d="M100 9.59117C149.323 9.59117 189.307 7.56605 189.307 5.06794C189.307 2.56982 149.323 0.544678 100 0.544678C50.6769 0.544678 10.6926 2.56982 10.6926 5.06794C10.6926 7.56605 50.6769 9.59117 100 9.59117Z" fill="#CCCCCC"/>
<path opacity="0.0794" d="M100.001 9.52084C148.586 9.52084 187.972 7.52607 187.972 5.06537C187.972 2.60466 148.586 0.609863 100.001 0.609863C51.4163 0.609863 12.0305 2.60466 12.0305 5.06537C12.0305 7.52607 51.4163 9.52084 100.001 9.52084Z" fill="#CCCCCC"/>
<path opacity="0.0882" d="M100.001 9.45265C147.848 9.45265 186.635 7.4882 186.635 5.0649C186.635 2.64161 147.848 0.677124 100.001 0.677124C52.1538 0.677124 13.3662 2.64161 13.3662 5.0649C13.3662 7.4882 52.1538 9.45265 100.001 9.45265Z" fill="#CCCCCC"/>
<path opacity="0.0971" d="M99.9997 9.38446C147.108 9.38446 185.297 7.45032 185.297 5.06444C185.297 2.67855 147.108 0.744385 99.9997 0.744385C52.891 0.744385 14.7019 2.67855 14.7019 5.06444C14.7019 7.45032 52.891 9.38446 99.9997 9.38446Z" fill="#CCCCCC"/>
<path opacity="0.1059" d="M100.001 9.31841C146.371 9.31841 183.962 7.41462 183.962 5.06614C183.962 2.71767 146.371 0.813843 100.001 0.813843C53.6304 0.813843 16.0398 2.71767 16.0398 5.06614C16.0398 7.41462 53.6304 9.31841 100.001 9.31841Z" fill="#CCCCCC"/>
<path opacity="0.1147" d="M99.9999 9.25022C145.632 9.25022 182.624 7.37674 182.624 5.06568C182.624 2.75461 145.632 0.881104 99.9999 0.881104C54.3677 0.881104 17.3755 2.75461 17.3755 5.06568C17.3755 7.37674 54.3677 9.25022 99.9999 9.25022Z" fill="#CCCCCC"/>
<path opacity="0.1235" d="M99.9993 9.182C144.894 9.182 181.287 7.33884 181.287 5.06518C181.287 2.79153 144.894 0.948364 99.9993 0.948364C55.1051 0.948364 18.7112 2.79153 18.7112 5.06518C18.7112 7.33884 55.1051 9.182 99.9993 9.182Z" fill="#CCCCCC"/>
<path opacity="0.1324" d="M100.001 9.11378C144.157 9.11378 179.952 7.30096 179.952 5.06472C179.952 2.82847 144.157 1.01562 100.001 1.01562C55.8446 1.01562 20.0491 2.82847 20.0491 5.06472C20.0491 7.30096 55.8446 9.11378 100.001 9.11378Z" fill="#CCCCCC"/>
<path opacity="0.1412" d="M99.9995 9.04339C143.417 9.04339 178.614 7.26089 178.614 5.06206C178.614 2.86322 143.417 1.08069 99.9995 1.08069C56.5818 1.08069 21.3848 2.86322 21.3848 5.06206C21.3848 7.26089 56.5818 9.04339 99.9995 9.04339Z" fill="#CCCCCC"/>
<path opacity="0.15" d="M100.001 8.97954C142.68 8.97954 177.279 7.22738 177.279 5.06596C177.279 2.90453 142.68 1.15234 100.001 1.15234C57.3212 1.15234 22.7227 2.90453 22.7227 5.06596C22.7227 7.22738 57.3212 8.97954 100.001 8.97954Z" fill="#CCCCCC"/>
<path opacity="0.1588" d="M100 8.90915C141.942 8.90915 175.942 7.18731 175.942 5.06329C175.942 2.93928 141.942 1.21741 100 1.21741C58.0587 1.21741 24.0583 2.93928 24.0583 5.06329C24.0583 7.18731 58.0587 8.90915 100 8.90915Z" fill="#CCCCCC"/>
<path opacity="0.1676" d="M100 8.84631C141.204 8.84631 174.606 7.15458 174.606 5.0677C174.606 2.98082 141.204 1.28906 100 1.28906C58.7971 1.28906 25.3953 2.98082 25.3953 5.0677C25.3953 7.15458 58.7971 8.84631 100 8.84631Z" fill="#CCCCCC"/>
<path opacity="0.1765" d="M100 8.77592C140.465 8.77592 173.269 7.1145 173.269 5.06504C173.269 3.01557 140.465 1.35413 100 1.35413C59.5353 1.35413 26.7319 3.01557 26.7319 5.06504C26.7319 7.1145 59.5353 8.77592 100 8.77592Z" fill="#CCCCCC"/>
<path opacity="0.1853" d="M99.9994 8.70767C139.726 8.70767 171.931 7.0766 171.931 5.06454C171.931 3.05249 139.726 1.42139 99.9994 1.42139C60.2726 1.42139 28.0676 3.05249 28.0676 5.06454C28.0676 7.0766 60.2726 8.70767 99.9994 8.70767Z" fill="#CCCCCC"/>
<path opacity="0.1941" d="M100 8.6396C138.989 8.6396 170.596 7.03885 170.596 5.0642C170.596 3.08955 138.989 1.48877 100 1.48877C61.0112 1.48877 29.4045 3.08955 29.4045 5.0642C29.4045 7.03885 61.0112 8.6396 100 8.6396Z" fill="#CCCCCC"/>
<path opacity="0.2029" d="M169.259 5.06578C169.259 7.00285 138.251 8.57346 100 8.57346C61.7497 8.57346 30.7415 7.00285 30.7415 5.06578C30.7415 3.12871 61.7497 1.55811 100 1.55811C138.251 1.55811 169.259 3.12823 169.259 5.06578Z" fill="#CCCCCC"/>
<path opacity="0.2118" d="M167.922 5.06544C167.922 6.96547 137.513 8.50536 100 8.50536C62.4879 8.50536 32.0781 6.96547 32.0781 5.06544C32.0781 3.16541 62.4879 1.62549 100 1.62549C137.513 1.62549 167.922 3.16541 167.922 5.06544Z" fill="#CCCCCC"/>
<path opacity="0.2206" d="M166.586 5.06498C166.586 6.92748 136.775 8.43717 100 8.43717C63.2264 8.43717 33.415 6.92748 33.415 5.06498C33.415 3.20247 63.2264 1.69275 100 1.69275C136.775 1.69275 166.586 3.20247 166.586 5.06498Z" fill="#CCCCCC"/>
<path opacity="0.2294" d="M165.25 5.06448C165.25 6.88947 136.037 8.36892 100.001 8.36892C63.9646 8.36892 34.7517 6.88947 34.7517 5.06448C34.7517 3.23949 63.9646 1.76001 100.001 1.76001C136.037 1.76001 165.25 3.23901 165.25 5.06448Z" fill="#CCCCCC"/>
<path opacity="0.2382" d="M163.914 5.06182C163.914 6.84928 135.299 8.29854 100.001 8.29854C64.7031 8.29854 36.0886 6.84928 36.0886 5.06182C36.0886 3.27387 64.7031 1.82507 100.001 1.82507C135.299 1.82507 163.914 3.27387 163.914 5.06182Z" fill="#CCCCCC"/>
<path opacity="0.2471" d="M162.576 5.06575C162.576 6.81618 134.56 8.23474 100 8.23474C65.4404 8.23474 37.4243 6.81569 37.4243 5.06575C37.4243 3.31532 65.4404 1.89673 100 1.89673C134.56 1.89673 162.576 3.31532 162.576 5.06575Z" fill="#CCCCCC"/>
<path opacity="0.2559" d="M161.239 5.06356C161.239 6.77647 133.822 8.1648 100 8.1648C66.1787 8.1648 38.761 6.77647 38.761 5.06356C38.761 3.35066 66.1787 1.96179 100 1.96179C133.822 1.96179 161.239 3.35066 161.239 5.06356Z" fill="#CCCCCC"/>
<path opacity="0.2647" d="M159.904 5.06746C159.904 6.74285 133.084 8.10145 100.001 8.10145C66.9172 8.10145 40.0979 6.74333 40.0979 5.06746C40.0979 3.39208 66.9172 2.03345 100.001 2.03345C133.084 2.03345 159.904 3.39159 159.904 5.06746Z" fill="#CCCCCC"/>
<path opacity="0.2735" d="M158.567 5.0648C158.567 6.70315 132.346 8.03106 100.001 8.03106C67.6557 8.03106 41.4348 6.70315 41.4348 5.0648C41.4348 3.42646 67.6557 2.09851 100.001 2.09851C132.346 2.09851 158.567 3.42646 158.567 5.0648Z" fill="#CCCCCC"/>
<path opacity="0.2824" d="M157.231 5.06431C157.231 6.66513 131.608 7.96284 100.001 7.96284C68.3939 7.96284 42.7715 6.66513 42.7715 5.06431C42.7715 3.46348 68.3939 2.16577 100.001 2.16577C131.608 2.16577 157.231 3.46348 157.231 5.06431Z" fill="#CCCCCC"/>
<path opacity="0.2912" d="M155.894 5.06384C155.894 6.62714 130.87 7.89462 100.001 7.89462C69.1324 7.89462 44.1084 6.62714 44.1084 5.06384C44.1084 3.50054 69.1324 2.23303 100.001 2.23303C130.87 2.23303 155.894 3.50006 155.894 5.06384Z" fill="#CCCCCC"/>
<path opacity="0.3" d="M154.557 5.06338C154.557 6.58916 130.132 7.82643 100.001 7.82643C69.8697 7.82643 45.4441 6.58916 45.4441 5.06338C45.4441 3.53711 69.8697 2.30029 100.001 2.30029C130.132 2.30029 154.557 3.53711 154.557 5.06338Z" fill="#CCCCCC"/>
<path opacity="0.3088" d="M153.221 5.06508C153.221 6.55382 129.393 7.76038 100.001 7.76038C70.6079 7.76038 46.7808 6.55382 46.7808 5.06508C46.7808 3.57634 70.6079 2.36975 100.001 2.36975C129.393 2.36975 153.221 3.57634 153.221 5.06508Z" fill="#CCCCCC"/>
<path opacity="0.3176" d="M151.884 5.06462C151.884 6.51583 128.655 7.69219 100.001 7.69219C71.3464 7.69219 48.1177 6.51583 48.1177 5.06462C48.1177 3.6134 71.3464 2.43701 100.001 2.43701C128.655 2.43701 151.884 3.6134 151.884 5.06462Z" fill="#CCCCCC"/>
<path opacity="0.3265" d="M150.547 5.06427C150.547 6.47797 127.917 7.62412 100.001 7.62412C72.0847 7.62412 49.4543 6.47797 49.4543 5.06427C49.4543 3.65058 72.0847 2.50439 100.001 2.50439C127.917 2.50439 150.547 3.65009 150.547 5.06427Z" fill="#CCCCCC"/>
<path opacity="0.3353" d="M149.212 5.06586C149.212 6.44251 127.18 7.55795 100.002 7.55795C72.8232 7.55795 50.7913 6.44203 50.7913 5.06586C50.7913 3.6892 72.8232 2.57373 100.002 2.57373C127.18 2.57373 149.212 3.6892 149.212 5.06586Z" fill="#CCCCCC"/>
<path opacity="0.3441" d="M147.874 5.06599C147.874 6.40512 126.441 7.49036 100.001 7.49036C73.5604 7.49036 52.127 6.40464 52.127 5.06599C52.127 3.72685 73.5604 2.64111 100.001 2.64111C126.441 2.64111 147.874 3.72685 147.874 5.06599Z" fill="#CCCCCC"/>
<path opacity="0.3529" d="M146.536 5.06333C146.536 6.36494 125.701 7.41997 99.9996 7.41997C74.2977 7.41997 53.4626 6.36494 53.4626 5.06333C53.4626 3.76171 74.2977 2.70618 99.9996 2.70618C125.701 2.70618 146.536 3.76171 146.536 5.06333Z" fill="#CCCCCC"/>
<path opacity="0.3618" d="M145.201 5.06723C145.201 6.33132 124.964 7.35662 100.001 7.35662C75.0372 7.35662 54.8005 6.3318 54.8005 5.06723C54.8005 3.80314 75.0377 2.77783 100.001 2.77783C124.964 2.77783 145.201 3.80265 145.201 5.06723Z" fill="#CCCCCC"/>
<path opacity="0.3706" d="M143.864 5.06457C143.864 6.29162 124.226 7.28621 100 7.28621C75.7749 7.28621 56.1362 6.29162 56.1362 5.06457C56.1362 3.83751 75.7749 2.8429 100 2.8429C124.226 2.8429 143.864 3.83751 143.864 5.06457Z" fill="#CCCCCC"/>
<path opacity="0.3794" d="M142.529 5.0641C142.529 6.25363 123.488 7.21801 100.001 7.21801C76.5144 7.21801 57.4741 6.25363 57.4741 5.0641C57.4741 3.87457 76.5144 2.91016 100.001 2.91016C123.488 2.91016 142.529 3.87457 142.529 5.0641Z" fill="#CCCCCC"/>
<path opacity="0.3882" d="M141.191 5.06361C141.191 6.21561 122.749 7.14977 100 7.14977C77.2517 7.14977 58.8098 6.21561 58.8098 5.06361C58.8098 3.9116 77.2517 2.97742 100 2.97742C122.749 2.97742 141.191 3.91111 141.191 5.06361Z" fill="#CCCCCC"/>
<path opacity="0.3971" d="M139.854 5.06314C139.854 6.17763 122.01 7.08158 99.9996 7.08158C77.9892 7.08158 60.1458 6.17811 60.1458 5.06314C60.1458 3.94817 77.9892 3.04468 99.9996 3.04468C122.01 3.04468 139.854 3.94817 139.854 5.06314Z" fill="#CCCCCC"/>
<path opacity="0.4059" d="M138.519 5.06487C138.519 6.14232 121.274 7.01558 100.001 7.01558C78.7287 7.01558 61.4836 6.14232 61.4836 5.06487C61.4836 3.98743 78.7287 3.11414 100.001 3.11414C121.274 3.11414 138.519 3.98743 138.519 5.06487Z" fill="#CCCCCC"/>
<path opacity="0.4147" d="M137.181 5.06438C137.181 6.10431 120.535 6.94733 100 6.94733C79.4659 6.94733 62.8193 6.10431 62.8193 5.06438C62.8193 4.02445 79.4659 3.1814 100 3.1814C120.535 3.1814 137.181 4.02445 137.181 5.06438Z" fill="#CCCCCC"/>
<path opacity="0.4235" d="M135.846 5.06392C135.846 6.06632 119.798 6.87914 100.002 6.87914C80.2054 6.87914 64.1572 6.06632 64.1572 5.06392C64.1572 4.06151 80.2054 3.24866 100.002 3.24866C119.798 3.24866 135.846 4.06103 135.846 5.06392Z" fill="#CCCCCC"/>
<path opacity="0.4324" d="M134.508 5.06562C134.508 6.03099 119.058 6.81312 100.001 6.81312C80.9427 6.81312 65.4929 6.0305 65.4929 5.06562C65.4929 4.10025 80.9427 3.31812 100.001 3.31812C119.058 3.31812 134.508 4.10025 134.508 5.06562Z" fill="#CCCCCC"/>
<path opacity="0.4412" d="M133.171 5.06563C133.171 5.99347 118.32 6.74538 100 6.74538C81.68 6.74538 66.8286 5.99299 66.8286 5.06563C66.8286 4.13779 81.68 3.38538 100 3.38538C118.32 3.38538 133.171 4.13779 133.171 5.06563Z" fill="#CCCCCC"/>
<path opacity="0.45" d="M131.836 5.06309C131.836 5.95341 117.583 6.67511 100.001 6.67511C82.4194 6.67511 68.1665 5.95341 68.1665 5.06309C68.1665 4.17277 82.4194 3.45056 100.001 3.45056C117.583 3.45056 131.836 4.17228 131.836 5.06309Z" fill="#CCCCCC"/>
</svg>
