<svg width="42" height="42" viewBox="0 0 42 42" fill="none" xmlns="http://www.w3.org/2000/svg">
<path d="M32.398 12.4583C34.0745 10.458 35.0002 7.9485 35.0002 5.39525V0H7.00024V5.39525C7.00024 7.9485 7.92424 10.4563 9.60249 12.4565L15.0047 18.8965C15.9952 20.0813 16.0022 21.7402 15.0205 22.932L9.54299 29.5715C7.90324 31.5595 7.00024 34.0427 7.00024 36.5627V42H35.0002V36.5627C35.0002 34.0427 34.0955 31.5613 32.4575 29.5732L26.98 22.9338C25.9965 21.742 26.0035 20.083 26.9957 18.8983L32.398 12.4583ZM31.5002 5.24825C31.5002 7.175 30.865 8.83575 29.7152 10.2078L28.0037 12.25H13.9967L12.2852 10.2078C11.1302 8.834 10.5002 7.16975 10.5002 5.24825H31.5002ZM29.7572 31.7992C30.8982 33.1835 31.5002 34.818 31.5002 36.75H29.6435C26.2502 33.25 21.0002 33.25 21.0002 33.25C21.0002 33.25 15.7502 33.25 12.357 36.75H10.5002C10.5002 34.818 11.1022 33.1817 12.2432 31.7992L17.719 25.1615C18.3175 24.4353 18.7182 23.611 18.9632 22.7518H19.2502V24.5018H22.7502V22.7518H23.0355C23.2822 23.611 23.6812 24.4352 24.2797 25.1597L29.7572 31.7992ZM19.2502 29.75H22.7502V31.5H19.2502V29.75ZM19.2502 26.25H22.7502V28H19.2502V26.25Z" fill="url(#paint0_linear_1_4236)"/>
<defs>
<linearGradient id="paint0_linear_1_4236" x1="21.0002" y1="0" x2="21.0002" y2="42" gradientUnits="userSpaceOnUse">
<stop stop-color="#63B8F3"/>
<stop offset="1" stop-color="#1F6BB2"/>
</linearGradient>
</defs>
</svg>
