<svg width="64" height="44" viewBox="0 0 64 44" fill="none" xmlns="http://www.w3.org/2000/svg">
<path d="M26.984 32.8373C33.0987 31.424 38.7893 30.1866 36.0347 24.9813C27.6427 9.13863 33.808 0.666626 42.6693 0.666626C51.704 0.666626 57.7173 9.46396 49.304 24.984C46.464 30.2213 52.368 31.456 58.352 32.84C63.6453 34.0613 64 36.648 64 41.1253L63.992 43.3333H60.448C60.448 37.7626 60.6693 37.0213 57.1787 36.216C52.1093 35.048 47.3253 33.944 45.576 30.072C44.9387 28.6586 44.5227 26.3333 46.1787 23.2906C49.8373 16.5386 50.7627 10.688 48.7093 7.24529C46.304 3.19996 39.064 3.22129 36.6773 7.18663C34.6293 10.5813 35.5413 16.464 39.1733 23.32C40.792 26.376 40.3653 28.696 39.7227 30.1013C37.9627 33.9546 33.1307 35.0693 28.016 36.248C24.6773 37.0213 24.8907 37.816 24.8907 43.3333H21.3413C21.3413 37.4773 20.872 34.2506 26.984 32.8373ZM0.00533333 43.3333H3.54933C3.54933 38.2186 3.05333 39.64 8.41333 38.072C11.1173 37.2853 13.5067 36.144 14.5893 33.7733C15.1547 32.5386 15.536 30.52 14.1573 27.9146C11.6187 23.12 10.9067 18.9173 12.2587 16.6746C13.7173 14.2506 18.312 14.2533 19.776 16.7146C22.2693 20.8933 17.6613 27.3333 17.056 30H20.7787C21.952 27.3333 23.9947 24.112 23.9947 19.6C23.9947 14.24 20.496 11.3333 16 11.3333C9.352 11.3333 4.728 17.688 11.024 29.5706C13.088 33.4746 8.82133 34.4026 4.23733 35.4613C0.264 36.3813 0 38.32 0 41.6853L0.00533333 43.3333Z" fill="url(#paint0_linear_1_4113)"/>
<defs>
<linearGradient id="paint0_linear_1_4113" x1="32" y1="0.666626" x2="32" y2="43.3333" gradientUnits="userSpaceOnUse">
<stop stop-color="#0D94E8"/>
<stop offset="1" stop-color="#10579B"/>
</linearGradient>
</defs>
</svg>
